<svg width="20" height="20" viewBox="0 0 20 20" fill="none" xmlns="http://www.w3.org/2000/svg">
<path fill-rule="evenodd" clip-rule="evenodd" d="M14.2402 20C13.6882 20 13.2402 19.553 13.2402 19V16.401C13.2872 15.738 13.0882 15.161 12.6972 14.742C12.4382 14.466 12.3582 14.068 12.4882 13.714C12.6182 13.359 12.9362 13.108 13.3122 13.065C15.7462 12.783 18.0002 11.947 18.0002 7.77399C18.0002 6.97399 17.7682 6.20299 17.3292 5.54699C16.9282 4.94899 16.7822 4.21999 16.9162 3.49399C17.0042 3.02099 16.9992 2.53999 16.9042 2.07499C16.5002 2.19499 15.8082 2.47999 14.8112 3.17399C14.5662 3.34399 14.2552 3.39499 13.9692 3.31499C12.1652 2.80799 10.2582 2.80799 8.45319 3.31499C8.16619 3.39499 7.85719 3.34399 7.61219 3.17399C6.62519 2.48699 5.93719 2.20099 5.51719 2.08299C5.42319 2.54399 5.41919 3.02099 5.50619 3.49099C5.63919 4.21299 5.48819 4.94999 5.08019 5.56799C4.64619 6.22699 4.41919 6.99699 4.42319 7.79699C4.42319 11.691 6.30219 12.73 9.12319 13.093C9.49519 13.141 9.80919 13.393 9.93719 13.746C10.0642 14.099 9.98319 14.493 9.72719 14.767C9.34019 15.182 9.14119 15.753 9.18019 16.334L9.18119 17.122C9.18319 17.162 9.18319 17.202 9.18119 17.242L9.18219 19C9.18219 19.553 8.73519 20 8.18219 20C7.63019 20 7.18219 19.553 7.18219 19V18.429C4.49719 18.779 2.96719 17.34 1.90619 16.34C1.46619 15.927 1.05219 15.536 0.749192 15.457C0.214192 15.318 -0.106808 14.772 0.0321924 14.238C0.171192 13.704 0.717192 13.378 1.25119 13.521C2.05019 13.729 2.64619 14.29 3.27719 14.884C4.29919 15.847 5.26919 16.759 7.18219 16.404V16.401C7.14519 15.872 7.22419 15.33 7.40719 14.817C5.35319 14.305 2.42319 12.812 2.42319 7.80199C2.41719 6.60999 2.75919 5.45599 3.41019 4.46699C3.53219 4.28199 3.57819 4.06499 3.53919 3.85399C3.33919 2.77099 3.45419 1.65899 3.87419 0.642992C3.98819 0.366992 4.21919 0.155992 4.50419 0.0679921C4.83519 -0.0340079 6.05519 -0.229008 8.36619 1.27099C10.2372 0.821992 12.1862 0.821992 14.0562 1.27099C16.3682 -0.229008 17.5872 -0.0350079 17.9182 0.0679921C18.2032 0.155992 18.4342 0.366992 18.5482 0.642992C18.9692 1.66099 19.0842 2.77199 18.8832 3.85799C18.8442 4.06699 18.8832 4.27199 18.9912 4.43499C19.6512 5.42199 20.0002 6.57599 20.0002 7.77399C20.0002 12.838 17.0772 14.313 15.0202 14.807C15.2042 15.336 15.2812 15.905 15.2372 16.478L15.2402 19C15.2402 19.553 14.7922 20 14.2402 20Z" fill="#292949"/>
</svg>
